<?xml version="1.0" encoding="UTF-8"?>
<!DOCTYPE svg  PUBLIC '-//W3C//DTD SVG 1.1//EN'  'http://www.w3.org/Graphics/SVG/1.1/DTD/svg11.dtd'>
<svg enable-background="new 0 0 246.027 246.027" version="1.1" viewBox="0 0 246.027 246.027" xml:space="preserve" xmlns="http://www.w3.org/2000/svg">
<path d="m242.75 196.51l-98.814-171.15c-4.367-7.564-12.189-12.081-20.924-12.081s-16.557 4.516-20.924 12.081l-98.813 171.15c-4.368 7.564-4.368 16.596 0 24.161s12.189 12.081 20.924 12.081h197.63c8.734 0 16.556-4.516 20.923-12.08 4.367-7.565 4.366-16.597-1e-3 -24.162zm-119.74 8.398c-8.672 0-15.727-7.055-15.727-15.727 0-8.671 7.055-15.726 15.727-15.726s15.727 7.055 15.727 15.726c-1e-3 8.673-7.056 15.727-15.727 15.727zm15.833-67.226c0 8.73-7.103 15.833-15.833 15.833s-15.833-7.103-15.833-15.833v-72.667c0-4.142 3.358-7.5 7.5-7.5h16.667c4.143 0 7.5 3.358 7.5 7.5v72.667z"/>
</svg>
