<?xml version="1.0" encoding="UTF-8"?>
<!DOCTYPE svg  PUBLIC '-//W3C//DTD SVG 1.1//EN'  'http://www.w3.org/Graphics/SVG/1.1/DTD/svg11.dtd'>
<svg enable-background="new 0 0 400 400" version="1.1" viewBox="0 0 400 400" xml:space="preserve" xmlns="http://www.w3.org/2000/svg">
	<path d="m199.99 0c-110.28 0-199.99 89.72-199.99 200s89.717 200 199.99 200c110.28 0 200.01-89.72 200.01-200s-89.727-200-200.01-200zm0 373.77c-95.814 0-173.76-77.954-173.76-173.77 0-95.817 77.947-173.77 173.76-173.77 95.822 0 173.78 77.953 173.78 173.77 1e-3 95.816-77.954 173.77-173.78 173.77z"/>
	<path d="m265.47 134.53c-5.123-5.123-13.422-5.123-18.545 0l-46.928 46.925-46.928-46.925c-5.123-5.123-13.424-5.123-18.547 0-5.123 5.12-5.123 13.426 0 18.546l46.922 46.925-46.928 46.926c-5.123 5.119-5.123 13.422 0 18.547 2.561 2.562 5.918 3.842 9.273 3.842s6.711-1.28 9.271-3.842l46.937-46.93 46.928 46.932c2.562 2.562 5.916 3.842 9.271 3.842 3.354 0 6.711-1.279 9.272-3.842 5.123-5.119 5.123-13.426 0-18.545l-46.926-46.93 46.928-46.925c5.123-5.12 5.123-13.423 0-18.546z"/>
</svg>
