<?xml version="1.0" encoding="UTF-8"?>
<svg viewBox="-48 0 407 407" xmlns="http://www.w3.org/2000/svg">
  <path d="m89.199 37c0-12.133 9.4688-21 21.602-21h88.801c12.129 0 21.598 8.8672 21.598 21v23h16v-23c0-20.953-16.645-37-37.598-37h-88.801c-20.953 0-37.602 16.047-37.602 37v23h16z"/>
  <path d="m60.602 407h189.2c18.242 0 32.398-16.047 32.398-36v-247h-254v247c0 19.953 14.156 36 32.402 36zm145.6-244.8c0-4.418 3.582-8 8-8s8 3.582 8 8v189c0 4.418-3.582 8-8 8s-8-3.582-8-8zm-59 0c0-4.418 3.582-8 8-8s8 3.582 8 8v189c0 4.418-3.582 8-8 8s-8-3.582-8-8zm-59 0c0-4.418 3.582-8 8-8s8 3.582 8 8v189c0 4.418-3.582 8-8 8s-8-3.582-8-8z"/>
  <path d="m20 108h270.4c11.047 0 20-8.9531 20-20s-8.9531-20-20-20h-270.4c-11.047 0-20 8.9531-20 20s8.9531 20 20 20z"/>
</svg>
