<?xml version="1.0" encoding="UTF-8"?>
<svg enable-background="new 0 0 55.25 55.25" version="1.1" viewBox="0 0 55.25 55.25" xml:space="preserve" xmlns="http://www.w3.org/2000/svg">
<path d="m52.618 2.631c-3.51-3.508-9.219-3.508-12.729 0l-36.062 36.062c-0.017 0.017-0.027 0.038-0.042 0.056-0.021 0.024-0.039 0.05-0.058 0.076-0.053 0.074-0.094 0.153-0.125 0.239-9e-3 0.026-0.022 0.049-0.029 0.075-3e-3 0.01-9e-3 0.02-0.012 0.03l-3.535 14.85c-0.016 0.067-0.02 0.135-0.022 0.202 0 0.013-4e-3 0.025-4e-3 0.038 1e-3 0.114 0.026 0.225 0.065 0.332 9e-3 0.025 0.019 0.047 0.03 0.071 0.049 0.107 0.11 0.21 0.196 0.296 0.095 0.095 0.207 0.168 0.328 0.218s0.25 0.075 0.379 0.075c0.077 0 0.155-9e-3 0.231-0.027l14.85-3.535c0.027-6e-3 0.051-0.021 0.077-0.03 0.034-0.011 0.066-0.024 0.099-0.039 0.072-0.033 0.139-0.074 0.201-0.123 0.024-0.019 0.049-0.033 0.072-0.054 8e-3 -8e-3 0.018-0.012 0.026-0.02l36.063-36.063c3.51-3.51 3.51-9.22 1e-3 -12.729zm-1.414 1.414c2.488 2.489 2.7 6.397 0.65 9.137l-9.787-9.787c2.741-2.05 6.649-1.838 9.137 0.65zm-4.95 14.85l-9.9-9.9 1.414-1.414 9.9 9.9-1.414 1.414zm-41.293 31.393c-0.391-0.391-1.023-0.391-1.414 0l-0.757 0.757 2.554-10.728 4.422-0.491-0.569 5.122c-4e-3 0.038 0.01 0.073 0.01 0.11 0 0.038-0.014 0.072-0.01 0.11 4e-3 0.033 0.021 0.06 0.028 0.092 0.012 0.058 0.029 0.111 0.05 0.165 0.026 0.065 0.057 0.124 0.095 0.181 0.031 0.046 0.062 0.087 0.1 0.127 0.048 0.051 0.1 0.094 0.157 0.134 0.045 0.031 0.088 0.06 0.138 0.084 0.066 0.031 0.135 0.049 0.207 0.066 0.038 9e-3 0.069 0.03 0.108 0.035 0.036 4e-3 0.072 6e-3 0.109 6e-3h1e-3 1e-3 1e-3 1e-3c0.036 0 0.073-2e-3 0.109-6e-3l5.122-0.569-0.491 4.422-10.729 2.554 0.757-0.757c0.39-0.39 0.39-1.023 0-1.414zm12.55-5.479l22.378-22.379c0.391-0.391 0.391-1.023 0-1.414s-1.023-0.391-1.414 0l-22.378 22.379-4.773 0.53 0.53-4.773 22.38-22.378c0.391-0.391 0.391-1.023 0-1.414s-1.023-0.391-1.414 0l-22.38 22.378-3.183 0.354 27.683-27.683 9.9 9.9-27.683 27.683 0.354-3.183zm31.571-28.742l-9.9-9.9 1.415-1.415 9.9 9.9-1.415 1.415z"/>
</svg>