<?xml version="1.0" encoding="UTF-8"?>
<svg width="512pt" height="512pt" viewBox="0 0 512 512" xmlns="http://www.w3.org/2000/svg">
<path d="m483.74 0h-455.5c-15.598 0.0078125-28.242 12.66-28.238 28.262v455.5c0.0078125 15.598 12.66 28.242 28.262 28.238h455.48c15.605 0.003906 28.258-12.645 28.262-28.25v-0.011719-455.5c-0.007812-15.598-12.66-28.242-28.262-28.238z" fill="#4267b2"/>
<path d="m353.5 512v-198h66.75l10-77.5h-76.75v-49.359c0-22.387 6.2148-37.641 38.316-37.641h40.684v-69.129c-7.0781-0.94141-31.363-3.0469-59.621-3.0469-59 0-99.379 36-99.379 102.14v57.035h-66.5v77.5h66.5v198z" fill="#fff"/>
</svg>