<?xml version="1.0" encoding="UTF-8"?>
<svg enable-background="new 0 0 512 512" version="1.1" viewBox="0 0 512 512" xml:space="preserve" xmlns="http://www.w3.org/2000/svg">
	<path d="m510.37 226.51c-1.088-2.603-2.645-4.971-4.629-6.955l-63.979-63.979c-8.341-8.32-21.824-8.32-30.165 0-8.341 8.341-8.341 21.845 0 30.165l27.584 27.584h-119.17c-11.797 0-21.333 9.557-21.333 21.333s9.536 21.333 21.333 21.333h119.17l-27.584 27.584c-8.341 8.341-8.341 21.845 0 30.165 4.16 4.181 9.621 6.251 15.083 6.251s10.923-2.069 15.083-6.251l63.979-63.979c1.984-1.963 3.541-4.331 4.629-6.955 2.154-5.203 2.154-11.091 0-16.296z"/>
	<path d="m362.68 298.67c-11.797 0-21.333 9.557-21.333 21.333v106.67h-85.333v-341.33c0-9.408-6.187-17.728-15.211-20.437l-74.091-22.229h174.64v106.67c0 11.776 9.536 21.333 21.333 21.333s21.333-9.557 21.333-21.333v-128c0-11.777-9.536-21.334-21.333-21.334h-341.33c-0.768 0-1.451 0.32-2.197 0.405-1.003 0.107-1.92 0.277-2.88 0.512-2.24 0.576-4.267 1.451-6.165 2.645-0.469 0.299-1.045 0.32-1.493 0.661-0.172 0.129-0.236 0.364-0.407 0.492-2.325 1.834-4.266 4.074-5.674 6.741-0.299 0.576-0.363 1.195-0.597 1.792-0.683 1.621-1.429 3.2-1.685 4.992-0.107 0.64 0.085 1.237 0.064 1.856-0.021 0.427-0.299 0.811-0.299 1.237v426.67c0 10.176 7.189 18.923 17.152 20.907l213.33 42.667c1.387 0.299 2.795 0.427 4.181 0.427 4.885 0 9.685-1.685 13.525-4.843 4.928-4.053 7.808-10.091 7.808-16.491v-21.333h106.67c11.797 0 21.333-9.557 21.333-21.333v-128c0-11.776-9.536-21.333-21.333-21.333z"/>
</svg>
